<?xml version="1.0" encoding="utf-8"?>
<!-- Generator: Adobe Illustrator 27.5.0, SVG Export Plug-In . SVG Version: 6.00 Build 0)  -->
<svg version="1.1" xmlns="http://www.w3.org/2000/svg" xmlns:xlink="http://www.w3.org/1999/xlink" x="0px" y="0px"
	 viewBox="0 0 500 500" style="enable-background:new 0 0 500 500;" xml:space="preserve">
<g id="Background_Complete">
	<g>
		<path style="fill:#E0E0E0;" d="M51.366,311.883l6.008,2.851c0,0,2.394-5.045,7.679-2.648c2.745,1.245,3.31,3.698,3.236,5.337
			c-0.087,1.903-1.146,3.615-2.737,4.663c-1.816,1.197-4.774,1.664-8.485-0.97l-4.183,8.817l5.941,2.819l1.521-3.205
			c0,0,9.354,1.799,13.711-7.383c4.168-8.786-2.742-14.565-6.115-16.165C65.363,304.775,56.282,301.23,51.366,311.883z"/>
		
			<rect x="50.124" y="333.342" transform="matrix(0.9035 0.4287 -0.4287 0.9035 149.3885 9.5637)" style="fill:#E0E0E0;" width="6.674" height="6.233"/>
	</g>
	<g>
		<path style="fill:#E0E0E0;" d="M109.709,409.362l6.786,1.919c0,0,1.612-5.698,7.562-4.125c3.09,0.817,4.115,3.282,4.326,5.009
			c0.245,2.005-0.56,3.983-2.038,5.359c-1.688,1.572-4.698,2.584-9.043,0.484l-2.817,9.958l6.71,1.898l1.024-3.62
			c0,0,10.099,0.229,13.033-10.143c2.807-9.923-5.441-14.745-9.25-15.822C123.09,399.456,112.967,397.354,109.709,409.362z"/>
		
			<rect x="112.703" y="431.385" transform="matrix(0.9623 0.2722 -0.2722 0.9623 122.6904 -15.2277)" style="fill:#E0E0E0;" width="7.077" height="6.61"/>
	</g>
	<g>
		<g>
			<g>
				<g>
					<g>
						<g>
							<g>
								<g>
									<g>
										<g>
											<g>
												<g>
													<g>
														<g>
															<g>
																<g>
																	<g>
																		<path style="fill:#FFFFFF;" d="M394.301,195.278l6.504,0.121c2.742,3.079,6.342,5.464,10.582,6.734
																			c12.193,3.654,25.039-3.268,28.693-15.46c3.654-12.193-3.268-25.039-15.461-28.693
																			c-12.193-3.654-25.039,3.268-28.693,15.46c-1.526,5.091-1.202,10.294,0.574,14.896l-0.008-0.01L394.301,195.278z"
																			/>
																		<g>
																			<path style="fill:#E0E0E0;" d="M394.302,195.278c-0.008,0.006,0.032-0.14,0.117-0.434
																				c0.095-0.322,0.224-0.759,0.391-1.322c0.366-1.213,0.895-2.964,1.578-5.229c0.018-0.058,0.079-0.091,0.137-0.074
																				c0.024,0.007,0.045,0.024,0.059,0.042l0.007,0.01l-0.193,0.104c-1.076-2.742-1.988-6.627-1.432-11.215
																				c0.262-2.285,0.953-4.703,2.08-7.096c1.124-2.392,2.739-4.752,4.875-6.801c2.129-2.05,4.775-3.786,7.792-4.939
																				c3.011-1.156,6.393-1.722,9.847-1.498c6.904,0.361,14.048,4.28,18.107,10.752
																				c2.056,3.282,3.324,6.996,3.556,10.714c0.275,3.712-0.354,7.383-1.683,10.642
																				c-1.347,3.258-3.41,6.077-5.833,8.28c-2.426,2.209-5.213,3.803-8.041,4.783
																				c-5.693,1.976-11.38,1.459-15.673-0.156c-4.346-1.617-7.366-4.201-9.266-6.374l0.077,0.035
																				c-2.1-0.066-3.73-0.118-4.867-0.154c-0.522-0.02-0.93-0.035-1.233-0.047
																				C394.429,195.292,394.294,195.284,394.302,195.278c0.008-0.005,0.158-0.008,0.445-0.009
																				c0.31,0,0.727,0,1.262-0.001c1.12,0.006,2.728,0.014,4.798,0.025c0.03,0,0.058,0.015,0.077,0.035
																				c1.917,2.123,4.929,4.641,9.224,6.199c4.246,1.557,9.836,2.025,15.414,0.061
																				c2.771-0.975,5.497-2.549,7.867-4.721c2.367-2.166,4.378-4.93,5.69-8.122c1.294-3.194,1.902-6.785,1.63-10.414
																				c-0.23-3.635-1.473-7.265-3.483-10.474c-3.969-6.327-10.944-10.165-17.701-10.534
																				c-6.796-0.472-13.144,2.237-17.303,6.255c-2.105,2.002-3.702,4.309-4.821,6.654
																				c-1.122,2.346-1.82,4.722-2.096,6.97c-0.583,4.515,0.273,8.36,1.298,11.092c0.022,0.057-0.005,0.121-0.062,0.144
																				c-0.048,0.019-0.102,0-0.131-0.039l-0.007-0.01l0.195-0.031c-0.729,2.217-1.293,3.93-1.683,5.118
																				c-0.19,0.569-0.339,1.01-0.447,1.335C394.365,195.115,394.302,195.278,394.302,195.278z"/>
																		</g>
																	</g>
																</g>
															</g>
														</g>
													</g>
												</g>
											</g>
										</g>
									</g>
								</g>
							</g>
						</g>
					</g>
				</g>
			</g>
		</g>
		<g>
			<path style="fill:#E0E0E0;" d="M410.359,176.894h4.074c0,0,0-3.421,3.555-3.482c1.846-0.032,2.803,1.177,3.192,2.104
				c0.452,1.076,0.315,2.302-0.29,3.299c-0.691,1.139-2.205,2.175-4.951,1.691v5.978h4.028v-2.173c0,0,5.65-1.46,5.65-7.686
				c0-5.957-5.342-7.34-7.629-7.34C416.239,169.284,410.283,169.707,410.359,176.894z"/>
			<rect x="415.928" y="188.036" style="fill:#E0E0E0;" width="4.088" height="3.818"/>
		</g>
	</g>
	<g>
		<path style="fill:#E0E0E0;" d="M140.621,71.992h19.1c0,0,0-16.037,16.666-16.325c8.656-0.149,13.143,5.521,14.967,9.864
			c2.117,5.044,1.476,10.792-1.36,15.469c-3.24,5.341-10.339,10.196-23.211,7.928l0,28.029h18.887l0-10.19
			c0,0,26.488-6.847,26.488-36.039c0-27.93-25.047-34.417-35.768-34.417C168.19,36.313,140.26,38.296,140.621,71.992z"/>
		<rect x="166.73" y="124.234" style="fill:#E0E0E0;" width="19.167" height="17.902"/>
	</g>
	<g>
		<path style="fill:#EBEBEB;" d="M123.635,138.525l-15.024-4.012c0,0-3.369,12.614-16.538,9.339c-6.84-1.701-9.178-7.103-9.7-10.903
			c-0.606-4.412,1.106-8.799,4.319-11.882c3.67-3.521,10.274-5.848,19.923-1.36l5.888-22.046l-14.855-3.967l-2.14,8.015
			c0,0-22.273-0.178-28.405,22.782c-5.867,21.969,12.471,32.333,20.904,34.585C94.455,160.797,116.84,165.105,123.635,138.525z"/>
		
			<rect x="100.612" y="75.609" transform="matrix(-0.9661 -0.258 0.258 -0.9661 191.7695 190.9574)" style="fill:#EBEBEB;" width="15.605" height="14.574"/>
	</g>
	<g>
		<path style="fill:#EBEBEB;" d="M413.225,307.215l12.487,1.346c0,0,1.13-10.484,12.046-9.498c5.669,0.512,8.203,4.535,9.089,7.504
			c1.029,3.447,0.204,7.16-1.98,10.017c-2.494,3.264-7.478,5.937-15.733,3.547l-1.975,18.324l12.347,1.331l0.718-6.661
			c0,0,17.799-2.61,19.857-21.693c1.968-18.259-13.949-24.266-20.958-25.021C433.763,285.833,415.364,285.161,413.225,307.215z"/>
		
			<rect x="425.944" y="343.85" transform="matrix(0.9942 0.1072 -0.1072 0.9942 39.977 -44.3159)" style="fill:#EBEBEB;" width="12.603" height="11.771"/>
	</g>
	<g>
		<path style="fill:#F5F5F5;" d="M49.217,382.108l13.123-1.415c0,0-1.188-11.019,10.242-12.451c5.936-0.744,9.439,2.82,11.014,5.669
			c1.828,3.309,1.814,7.306,0.211,10.729c-1.83,3.91-6.348,7.772-15.361,7.167l2.076,19.258l12.977-1.399l-0.755-7.001
			c0,0,17.692-6.667,15.53-26.723c-2.069-19.19-19.759-21.792-27.125-20.998C65.517,355.552,46.474,358.982,49.217,382.108z"/>
		
			<rect x="71.651" y="415.322" transform="matrix(0.9942 -0.1072 0.1072 0.9942 -44.7299 10.8185)" style="fill:#F5F5F5;" width="13.246" height="12.371"/>
	</g>
	<g>
		<path style="fill:#F5F5F5;" d="M231.709,86.45l11.543-3.369c0,0-2.829-9.691,7.192-12.805c5.204-1.617,8.917,1.018,10.785,3.321
			c2.169,2.674,2.796,6.261,1.907,9.588c-1.016,3.799-4.449,7.986-12.628,8.886l4.944,16.938l11.414-3.332l-1.797-6.158
			c0,0,14.799-8.811,9.65-26.451c-4.927-16.879-21.208-16.381-27.687-14.489C242.076,60.026,225.547,66.15,231.709,86.45z"/>
		
			<rect x="258.04" y="111.499" transform="matrix(0.9599 -0.2802 0.2802 0.9599 -22.2427 78.6865)" style="fill:#F5F5F5;" width="12.067" height="11.27"/>
	</g>
	<g>
		<path style="fill:#F5F5F5;" d="M437.833,254.053l9.323-2.721c0,0-2.285-7.827,5.809-10.342c4.203-1.306,7.202,0.822,8.71,2.682
			c1.752,2.16,2.258,5.057,1.54,7.744c-0.82,3.069-3.594,6.45-10.2,7.177l3.993,13.681l9.218-2.691l-1.452-4.973
			c0,0,11.953-7.116,7.794-21.364c-3.979-13.632-17.129-13.23-22.361-11.703C446.206,232.71,432.856,237.657,437.833,254.053z"/>
		
			<rect x="459.099" y="274.283" transform="matrix(0.9599 -0.2802 0.2802 0.9599 -59.5442 141.1775)" style="fill:#F5F5F5;" width="9.746" height="9.102"/>
	</g>
</g>
<g id="Background_Simple" style="display:none;">
	<path style="display:inline;fill:#F5F5F5;" d="M229.658,70.855l0.941,2.043c7.932,17.223,6.081,37.431-5.393,52.31
		c-1.475,1.913-3.088,3.719-4.833,5.398c-12.563,12.089-31.549,17.172-48.675,13.03c-10.072-2.436-19.905-7.854-30.133-6.478
		c-13.312,1.79-22.056,14.182-29.17,25.464c-7.114,11.282-15.897,23.66-29.217,25.392c-8.342,1.085-16.766-2.467-23.516-7.565
		c-17.871-13.497-25.727-37.601-22.877-59.588S51.951,79.038,67.71,63.507C89.786,41.75,119.894,27.21,151.145,27.35
		C182.395,27.489,214.192,43.649,229.658,70.855z"/>
	<path style="display:inline;fill:#F5F5F5;" d="M332.895,428.21l-1.709-1.462c-14.409-12.326-21.18-31.456-16.981-49.77
		c0.54-2.354,1.249-4.67,2.132-6.925c6.355-16.236,21.475-28.794,38.763-32.195c10.167-2,21.365-1.192,30.08-6.719
		c11.342-7.194,14.102-22.107,15.845-35.331c1.743-13.224,4.543-28.141,15.918-35.285c7.124-4.475,16.261-4.772,24.525-2.965
		c21.878,4.785,39.095,23.393,45.703,44.556c6.608,21.163,3.718,44.334-4.1,65.033c-10.952,28.996-32.219,54.796-60.663,67.741
		C393.964,447.832,358.324,446.453,332.895,428.21z"/>
	<circle style="display:inline;fill:#F5F5F5;" cx="431.774" cy="197.106" r="29.866"/>
	<circle style="display:inline;fill:#F5F5F5;" cx="81.745" cy="414.834" r="29.867"/>
</g>
<g id="Floor">
	<g>
		<path style="fill:#263238;" d="M468.292,478.852c0,0.144-97.74,0.26-218.281,0.26c-120.583,0-218.302-0.117-218.302-0.26
			c0-0.144,97.719-0.26,218.302-0.26C370.551,478.592,468.292,478.708,468.292,478.852z"/>
	</g>
</g>
<g id="Speech_Bubble">
	<g>
		<g>
			<g>
				
					<ellipse transform="matrix(0.1565 -0.9877 0.9877 0.1565 202.2103 465.2518)" style="fill:#FFFFFF;" cx="373.488" cy="114.241" rx="39.133" ry="39.133"/>
				<g>
					<path style="fill:#263238;" d="M412.621,114.241c0,0-0.029-0.215-0.059-0.633c-0.028-0.437-0.068-1.054-0.12-1.857
						c-0.025-0.41-0.052-0.866-0.082-1.368c-0.053-0.501-0.16-1.044-0.248-1.634c-0.094-0.591-0.195-1.226-0.303-1.904
						c-0.081-0.684-0.336-1.379-0.512-2.133c-0.689-3.022-2.104-6.594-4.334-10.379c-2.249-3.769-5.493-7.707-9.911-11.05
						c-0.555-0.413-1.116-0.831-1.684-1.254c-0.592-0.388-1.215-0.743-1.831-1.122c-0.629-0.357-1.225-0.792-1.899-1.098
						c-0.667-0.32-1.341-0.643-2.021-0.969c-0.341-0.162-0.684-0.324-1.028-0.487c-0.358-0.13-0.718-0.261-1.08-0.393
						c-0.723-0.263-1.454-0.529-2.191-0.798c-0.744-0.246-1.523-0.404-2.293-0.614c-0.778-0.176-1.544-0.45-2.355-0.533
						c-1.609-0.228-3.235-0.56-4.92-0.569c-0.839-0.029-1.684-0.111-2.536-0.097c-0.852,0.044-1.71,0.089-2.575,0.133
						c-0.431,0.03-0.868,0.027-1.3,0.084l-1.297,0.2c-0.866,0.144-1.746,0.245-2.617,0.425c-1.717,0.467-3.495,0.816-5.186,1.522
						c-1.745,0.558-3.385,1.421-5.072,2.229c-0.821,0.445-1.609,0.964-2.422,1.447c-0.398,0.255-0.823,0.472-1.202,0.759
						l-1.145,0.857c-1.581,1.085-2.963,2.442-4.411,3.749c-1.308,1.447-2.682,2.864-3.81,4.507l-0.894,1.196l-0.783,1.279
						l-0.782,1.288c-0.272,0.424-0.521,0.862-0.724,1.326c-0.438,0.91-0.878,1.824-1.32,2.742c-0.35,0.956-0.702,1.916-1.055,2.879
						c-1.268,3.902-1.95,8.047-2.006,12.265c0.056,4.219,0.736,8.365,2.004,12.269c0.353,0.964,0.704,1.924,1.055,2.88
						c0.442,0.918,0.882,1.832,1.32,2.743l0.332,0.68l0.392,0.646l0.782,1.288l0.783,1.28l0.894,1.197
						c1.128,1.643,2.502,3.061,3.81,4.508c1.448,1.307,2.83,2.665,4.411,3.75l1.145,0.858c0.379,0.288,0.804,0.505,1.202,0.76
						c0.813,0.482,1.601,1.001,2.422,1.447c1.687,0.809,3.328,1.671,5.073,2.23c1.691,0.707,3.47,1.055,5.187,1.523
						c0.871,0.18,1.751,0.282,2.617,0.425l1.297,0.2c0.432,0.057,0.868,0.054,1.3,0.084c0.865,0.045,1.723,0.089,2.575,0.133
						c0.852,0.013,1.698-0.069,2.536-0.098c1.685-0.009,3.311-0.341,4.921-0.569c0.812-0.083,1.577-0.357,2.356-0.533
						c0.77-0.209,1.549-0.367,2.293-0.614c0.737-0.269,1.467-0.535,2.191-0.798c0.362-0.132,0.722-0.263,1.08-0.393
						c0.344-0.163,0.687-0.326,1.028-0.487c0.681-0.326,1.355-0.649,2.022-0.969c0.674-0.306,1.27-0.74,1.899-1.098
						c0.616-0.38,1.24-0.734,1.831-1.122c0.568-0.423,1.129-0.841,1.684-1.254c4.418-3.343,7.662-7.281,9.91-11.051
						c2.23-3.786,3.645-7.356,4.333-10.378c0.176-0.754,0.43-1.449,0.511-2.133c0.108-0.678,0.209-1.313,0.303-1.904
						c0.088-0.59,0.195-1.133,0.248-1.634c0.03-0.502,0.057-0.958,0.082-1.368c0.052-0.803,0.091-1.42,0.12-1.857
						C412.592,114.456,412.621,114.241,412.621,114.241s0.007,0.215-0.005,0.634c-0.016,0.438-0.039,1.057-0.068,1.863
						c-0.017,0.411-0.036,0.869-0.057,1.373c-0.045,0.503-0.144,1.049-0.224,1.643c-0.087,0.594-0.18,1.233-0.28,1.916
						c-0.074,0.689-0.321,1.389-0.49,2.149c-0.663,3.045-2.057,6.65-4.28,10.478c-2.241,3.812-5.492,7.801-9.937,11.194
						c-0.559,0.419-1.124,0.844-1.695,1.273c-0.595,0.394-1.223,0.755-1.844,1.141c-0.633,0.364-1.234,0.804-1.914,1.116
						c-0.673,0.326-1.352,0.654-2.039,0.987c-0.344,0.164-0.69,0.33-1.037,0.496c-0.361,0.133-0.725,0.267-1.09,0.401
						c-0.73,0.268-1.467,0.54-2.212,0.813c-0.751,0.251-1.538,0.414-2.316,0.628c-0.786,0.181-1.56,0.459-2.38,0.546
						c-1.626,0.236-3.27,0.575-4.974,0.589c-0.848,0.032-1.703,0.116-2.565,0.105c-0.862-0.043-1.73-0.085-2.605-0.128
						c-0.437-0.029-0.878-0.026-1.315-0.083l-1.313-0.199c-0.877-0.143-1.768-0.245-2.65-0.425c-1.739-0.468-3.54-0.819-5.254-1.531
						c-1.767-0.563-3.431-1.432-5.14-2.25c-0.832-0.45-1.631-0.973-2.455-1.461c-0.403-0.258-0.834-0.477-1.218-0.768l-1.161-0.867
						c-1.602-1.098-3.005-2.469-4.472-3.793c-1.328-1.464-2.72-2.899-3.865-4.562l-0.907-1.212l-0.794-1.296l-0.793-1.304
						l-0.398-0.654l-0.337-0.689c-0.445-0.922-0.891-1.849-1.339-2.779c-0.355-0.969-0.712-1.942-1.071-2.918
						c-1.286-3.955-1.977-8.158-2.033-12.433c0.056-4.273,0.749-8.474,2.035-12.428c0.358-0.976,0.715-1.949,1.071-2.917
						c0.448-0.929,0.894-1.855,1.339-2.778c0.207-0.47,0.459-0.913,0.735-1.343l0.793-1.304l0.794-1.295l0.906-1.212
						c1.144-1.663,2.537-3.097,3.864-4.561c1.467-1.323,2.87-2.695,4.471-3.792l1.161-0.866c0.384-0.29,0.815-0.51,1.218-0.768
						c0.824-0.488,1.622-1.011,2.454-1.461c1.709-0.818,3.372-1.686,5.139-2.249c1.713-0.711,3.514-1.062,5.253-1.531
						c0.881-0.181,1.773-0.282,2.649-0.425l1.313-0.199c0.437-0.057,0.879-0.053,1.315-0.083c0.875-0.043,1.743-0.086,2.605-0.128
						c0.862-0.011,1.717,0.073,2.565,0.104c1.704,0.014,3.348,0.353,4.974,0.589c0.82,0.087,1.594,0.365,2.38,0.546
						c0.778,0.214,1.565,0.377,2.316,0.628c0.744,0.274,1.481,0.545,2.212,0.813c0.365,0.134,0.728,0.268,1.09,0.401
						c0.348,0.166,0.693,0.331,1.037,0.496c0.686,0.332,1.366,0.661,2.039,0.987c0.68,0.311,1.281,0.752,1.914,1.116
						c0.621,0.386,1.249,0.747,1.844,1.141c0.572,0.429,1.137,0.854,1.695,1.273c4.445,3.393,7.696,7.382,9.938,11.194
						c2.224,3.828,3.618,7.433,4.281,10.479c0.169,0.76,0.416,1.46,0.491,2.149c0.1,0.683,0.193,1.322,0.28,1.916
						c0.08,0.594,0.18,1.14,0.224,1.643c0.021,0.504,0.04,0.962,0.057,1.374c0.029,0.806,0.052,1.425,0.068,1.863
						C412.628,114.027,412.621,114.241,412.621,114.241z"/>
				</g>
			</g>
			<g>
				<path style="fill:#FF725E;" d="M359.566,107.534H367c0,0,0-6.243,6.487-6.354c3.369-0.058,5.116,2.149,5.826,3.84
					c0.824,1.963,0.575,4.201-0.53,6.021c-1.261,2.079-4.024,3.969-9.035,3.086v10.91h7.352v-3.966c0,0,10.311-2.665,10.311-14.028
					c0-10.872-9.75-13.397-13.923-13.397C370.297,93.646,359.425,94.417,359.566,107.534z"/>
				<rect x="369.728" y="127.869" style="fill:#FF725E;" width="7.461" height="6.968"/>
			</g>
		</g>
		<g>
			<circle style="fill:#FFFFFF;" cx="355.058" cy="160.331" r="6.124"/>
			<g>
				<path style="fill:#263238;" d="M361.182,160.331c-0.055,0.003-0.036-0.546-0.29-1.471c-0.25-0.908-0.872-2.233-2.24-3.251
					c-1.322-1.02-3.496-1.589-5.598-0.805c-1.035,0.376-2.022,1.082-2.722,2.057c-0.721,0.962-1.125,2.196-1.137,3.468
					c0.012,1.273,0.416,2.507,1.137,3.469c0.7,0.976,1.687,1.682,2.722,2.058c2.102,0.785,4.276,0.215,5.598-0.805
					c1.368-1.018,1.99-2.343,2.24-3.251C361.146,160.876,361.127,160.328,361.182,160.331c0.018,0,0.029,0.134,0.033,0.393
					c0.009,0.258-0.021,0.644-0.126,1.126c-0.198,0.952-0.791,2.374-2.214,3.494c-1.374,1.122-3.7,1.786-5.985,0.963
					c-1.125-0.394-2.202-1.151-2.97-2.207c-0.788-1.041-1.235-2.387-1.247-3.771c0.012-1.384,0.459-2.729,1.247-3.77
					c0.767-1.055,1.844-1.812,2.969-2.206c2.285-0.823,4.611-0.159,5.985,0.963c1.423,1.12,2.016,2.542,2.214,3.494
					c0.105,0.483,0.135,0.868,0.126,1.126C361.211,160.196,361.2,160.331,361.182,160.331z"/>
			</g>
		</g>
	</g>
</g>
<g id="Character">
	<g>
		<g>
			<path style="fill:#263238;" d="M362.955,296.683c10.178,34.532,12.56,71.08,6.435,106.594c-0.756,4.386,1.17,8.887,5.762,10.148
				c3.971,1.091,9.387-1.347,10.148-5.762c6.636-38.476,4.614-77.879-6.435-115.366C375.87,282.134,359.942,286.46,362.955,296.683
				L362.955,296.683z"/>
		</g>
		<path style="fill:#FF725E;" d="M406.254,254.695c-4.689-16.101-17.621-29.21-33.01-33.462c3.096-11.517-1.807-24.816-7.898-34.904
			c-6.091-10.088-17.086-17.342-28.253-19.192c-11.597-1.922-18.796-0.876-30.033,2.72c-6.709-12.847-19.601-19.814-33.372-21.464
			c-13.771-1.65-28.6,6.099-34.181,19.539c-1.997-14.129-17.919-22.506-31.063-19.318c-13.145,3.188-23.127,14.851-29.281,27.564
			l176.578,189.952c15.651,6.24,34.958-0.254,44.347-14.915c9.389-14.661,7.948-36.067-3.309-49.169
			C407.23,289.345,410.943,270.796,406.254,254.695z"/>
		
			<rect x="242.238" y="387.531" transform="matrix(0.9942 0.1072 -0.1072 0.9942 47.8278 -24.1647)" style="fill:#263238;" width="12.932" height="90.604"/>
		
			<rect x="275.468" y="387.531" transform="matrix(-0.9942 0.1072 -0.1072 -0.9942 608.6394 832.9526)" style="fill:#263238;" width="12.932" height="90.604"/>
		<path style="fill:#FF725E;" d="M117.692,200.221c5.268-14.742,14.914-25.923,29.655-32.022c14.866-6.15,31.646-6.244,47.488-3.445
			c6.494,1.147,13.166,2.892,18.172,7.184c5.006,4.293,7.816,11.777,4.932,17.707c13.734-7.754,31.548-7.7,45.235,0.138
			c13.686,7.837,22.75,23.174,23.013,38.943c14.31-1.144,29.328,2.019,40.682,10.804c11.354,8.785,18.376,23.658,15.805,37.782
			c9.356-0.818,18.329,5.206,23.311,13.168c4.981,7.962,6.608,17.557,7.271,26.925c0.409,5.783,0.468,11.739-1.464,17.206
			c-0.94,2.661-2.34,5.169-2.952,7.923c-0.74,3.333-0.28,6.797-0.177,10.21c0.474,15.789-7.386,31.594-20.262,40.745
			c-12.876,9.151-30.387,11.375-45.142,5.734c-16.389,16.92-45.759,19.029-64.398,4.624c-12.125,4.067-24.97,6.998-37.655,5.367
			c-6.471-0.832-12.87-2.982-18.398-6.475c-5.066-3.201-7.971-9.387-12.741-12.317c-4.872-2.993-10.385-0.357-15.882-0.431
			c-6.415-0.087-12.822-1.663-18.509-4.642c-10.846-5.681-18.915-16.272-21.861-28.156c-0.597-2.407-1.039-4.96-2.555-6.922
			c-1.387-1.795-3.49-2.854-5.45-3.997c-12.216-7.126-21.022-19.837-23.401-33.779c-2.379-13.941,1.713-28.853,10.875-39.627
			c0,0-9.249-23.722-0.547-44.967C101.442,206.657,117.692,200.221,117.692,200.221z"/>
		<g style="opacity:0.3;">
			<path d="M399.988,334.308c-7.368,11.506-20.845,17.978-33.869,17.217c-3.225,9.715-9.463,18.451-17.815,24.386
				c-12.877,9.15-30.387,11.375-45.142,5.735c-16.389,16.92-45.759,19.029-64.398,4.624c-12.125,4.067-24.97,6.998-37.655,5.367
				c-6.471-0.832-12.87-2.982-18.398-6.475c-5.066-3.201-7.971-9.387-12.741-12.317c-4.872-2.993-10.385-0.357-15.882-0.431
				c-6.415-0.087-12.822-1.663-18.509-4.642c-10.846-5.681-18.915-16.272-21.861-28.156c-0.597-2.407-1.039-4.96-2.555-6.922
				c-1.387-1.795-3.49-2.854-5.45-3.997c-11.986-6.992-20.674-19.364-23.244-32.996c-1.01,5.525-1.102,11.214-0.157,16.753
				c2.379,13.941,11.185,26.652,23.401,33.779c1.959,1.143,4.063,2.202,5.45,3.997c1.516,1.962,1.959,4.516,2.555,6.922
				c2.946,11.884,11.016,22.475,21.861,28.156c5.687,2.979,12.094,4.555,18.509,4.642c5.497,0.074,11.01-2.562,15.882,0.431
				c4.77,2.931,7.675,9.117,12.741,12.317c5.528,3.493,11.927,5.642,18.398,6.475c12.685,1.631,25.529-1.3,37.655-5.367
				c18.638,14.405,48.008,12.296,64.398-4.624c14.755,5.64,32.266,3.416,45.142-5.735c8.352-5.935,14.589-14.672,17.815-24.386
				c13.025,0.762,26.501-5.71,33.869-17.217c5.723-8.937,7.415-20.378,5.32-30.918C404.346,325.689,402.582,330.256,399.988,334.308
				z"/>
		</g>
		<g>
			<path style="fill:#263238;" d="M186.627,305.236c-0.016,0.009-0.151-0.175-0.395-0.534c-0.256-0.35-0.568-0.909-1.069-1.56
				c-0.943-1.342-2.445-3.196-4.575-5.206c-2.124-2.013-4.948-4.115-8.407-5.85c-3.449-1.739-7.563-3.043-12.002-3.484
				c-4.445-0.388-8.73,0.132-12.442,1.202c-3.721,1.065-6.885,2.608-9.344,4.194c-2.466,1.581-4.285,3.125-5.46,4.269
				c-0.613,0.547-1.023,1.038-1.339,1.335c-0.306,0.307-0.473,0.463-0.487,0.451c-0.014-0.012,0.127-0.191,0.409-0.521
				c0.292-0.321,0.68-0.836,1.275-1.409c1.138-1.195,2.936-2.797,5.402-4.434c2.46-1.642,5.647-3.24,9.411-4.346
				c3.755-1.111,8.105-1.655,12.624-1.26c4.512,0.448,8.685,1.788,12.169,3.574c3.495,1.783,6.33,3.943,8.444,6.012
				c2.121,2.066,3.591,3.972,4.488,5.358c0.478,0.673,0.765,1.252,0.992,1.621C186.537,305.025,186.643,305.227,186.627,305.236z"/>
		</g>
		<g>
			<path style="fill:#263238;" d="M200.54,364.464c-0.009,0-0.007-0.12,0.005-0.354c0.017-0.261,0.039-0.604,0.068-1.038
				c0.037-0.467,0.082-1.03,0.134-1.689c0.107-0.666,0.229-1.429,0.367-2.283c0.315-1.711,0.844-3.779,1.658-6.117
				c0.891-2.302,1.979-4.922,3.65-7.559c3.232-5.287,8.335-11.048,15.635-15.001c3.621-1.984,7.78-3.429,12.222-4.115
				c4.44-0.692,9.152-0.644,13.842,0.192c9.395,1.707,17.647,6.512,23.167,12.648c5.586,6.117,8.485,13.358,9.156,19.547
				c0.702,6.244-0.683,11.297-2.035,14.472c-1.394,3.203-2.657,4.692-2.657,4.692c-0.007-0.005,0.051-0.111,0.171-0.311
				c0.136-0.222,0.315-0.515,0.541-0.886c0.45-0.792,1.108-1.969,1.758-3.572c1.285-3.175,2.597-8.19,1.857-14.352
				c-0.709-6.108-3.608-13.243-9.145-19.268c-5.467-6.039-13.622-10.771-22.904-12.458c-4.633-0.826-9.286-0.877-13.67-0.201
				c-4.386,0.67-8.489,2.085-12.072,4.033c-7.223,3.881-12.305,9.555-15.549,14.772c-1.677,2.602-2.779,5.19-3.69,7.467
				c-0.834,2.311-1.388,4.359-1.732,6.055c-0.154,0.848-0.292,1.604-0.412,2.265c-0.072,0.654-0.132,1.214-0.183,1.677
				c-0.05,0.432-0.089,0.773-0.119,1.032C200.569,364.346,200.549,364.465,200.54,364.464z"/>
		</g>
		<g>
			<path style="fill:#263238;" d="M330.215,375.898c0.008,0.016-0.141,0.099-0.433,0.243c-0.296,0.132-0.716,0.374-1.299,0.581
				c-1.144,0.469-2.875,0.991-5.077,1.278c-2.198,0.293-4.88,0.269-7.759-0.351c-2.873-0.612-5.926-1.884-8.657-3.922
				c-2.704-2.076-4.757-4.671-6.125-7.27c-1.378-2.603-2.128-5.178-2.442-7.373c-0.321-2.197-0.289-4.005-0.147-5.233
				c0.04-0.617,0.16-1.087,0.206-1.408c0.059-0.32,0.099-0.486,0.116-0.482c0.148,0.002-0.539,2.732,0.188,7.064
				c0.355,2.152,1.129,4.668,2.501,7.205c1.363,2.534,3.381,5.058,6.017,7.082c2.663,1.987,5.638,3.244,8.447,3.869
				c2.814,0.633,5.445,0.695,7.613,0.453C327.731,377.158,330.172,375.756,330.215,375.898z"/>
		</g>
		<g>
			<path style="fill:#263238;" d="M178.346,182.444c-0.035-0.006,0.019-0.463,0.149-1.288c0.119-0.826,0.373-2.009,0.76-3.452
				c0.379-1.445,0.95-3.135,1.694-4.967c0.768-1.822,1.723-3.78,2.891-5.742c1.185-1.953,2.467-3.716,3.716-5.249
				c1.269-1.517,2.494-2.813,3.593-3.826c1.092-1.019,2.018-1.798,2.692-2.291c0.667-0.501,1.046-0.764,1.068-0.735
				c0.06,0.076-1.4,1.203-3.503,3.29c-1.057,1.038-2.241,2.348-3.477,3.864c-1.215,1.533-2.47,3.283-3.642,5.214
				c-1.155,1.94-2.112,3.868-2.896,5.661c-0.76,1.802-1.361,3.462-1.782,4.883C178.752,180.644,178.442,182.462,178.346,182.444z"/>
		</g>
		<g>
			<path style="fill:#263238;" d="M139.279,197.764c-0.026,0.103-1.797-0.413-4.731-0.722c-1.465-0.166-3.224-0.218-5.168-0.139
				c-1.943,0.114-4.071,0.379-6.261,0.883c-2.185,0.529-4.207,1.244-5.996,2.012c-1.775,0.8-3.324,1.633-4.56,2.437
				c-2.486,1.59-3.839,2.843-3.908,2.762c-0.024-0.027,0.303-0.348,0.92-0.908c0.304-0.285,0.687-0.622,1.163-0.974
				c0.472-0.357,0.991-0.791,1.624-1.187c1.225-0.852,2.776-1.731,4.566-2.567c1.804-0.803,3.854-1.544,6.073-2.081
				c2.224-0.512,4.388-0.767,6.36-0.855c1.974-0.053,3.755,0.039,5.232,0.253c0.743,0.071,1.402,0.227,1.983,0.335
				c0.583,0.102,1.076,0.232,1.476,0.351C138.852,197.588,139.289,197.729,139.279,197.764z"/>
		</g>
		<g>
			<path style="fill:#263238;" d="M139.279,280.715c0.011,0.014-0.124,0.138-0.392,0.361c-0.274,0.215-0.656,0.565-1.204,0.938
				c-1.066,0.788-2.703,1.813-4.866,2.802c-2.159,0.992-4.876,1.882-7.992,2.355c-3.11,0.478-6.622,0.484-10.198-0.207
				c-3.57-0.729-6.813-2.079-9.504-3.71c-2.698-1.629-4.869-3.491-6.484-5.233c-1.62-1.74-2.741-3.314-3.424-4.45
				c-0.364-0.554-0.582-1.024-0.753-1.327c-0.162-0.309-0.24-0.474-0.224-0.483c0.04-0.023,0.413,0.608,1.147,1.7
				c0.731,1.094,1.886,2.618,3.52,4.305c1.63,1.689,3.794,3.495,6.464,5.076c2.663,1.584,5.855,2.895,9.36,3.611
				c3.511,0.678,6.961,0.687,10.027,0.243c3.071-0.44,5.761-1.28,7.913-2.217c2.155-0.933,3.806-1.9,4.9-2.632
				C138.665,281.119,139.25,280.678,139.279,280.715z"/>
		</g>
		<g>
			<path style="fill:#263238;" d="M114.749,327.573c0.095,0.04-0.69,1.78-1.511,4.729c-0.42,1.471-0.794,3.257-1.087,5.256
				c-0.261,2.003-0.423,4.222-0.383,6.554c0.063,2.332,0.323,4.542,0.672,6.532c0.381,1.984,0.834,3.751,1.318,5.203
				c0.951,2.91,1.811,4.614,1.718,4.658c-0.032,0.016-0.262-0.401-0.65-1.171c-0.2-0.383-0.43-0.858-0.657-1.428
				c-0.232-0.567-0.523-1.204-0.759-1.94c-0.534-1.45-1.03-3.228-1.441-5.232c-0.38-2.009-0.658-4.248-0.722-6.61
				c-0.041-2.362,0.138-4.61,0.429-6.634c0.323-2.02,0.74-3.817,1.209-5.29c0.203-0.746,0.467-1.395,0.673-1.972
				c0.201-0.579,0.41-1.064,0.593-1.456C114.506,327.985,114.717,327.558,114.749,327.573z"/>
		</g>
		<g>
			<path style="fill:#263238;" d="M179.593,399.6c-0.015,0.01-0.162-0.17-0.428-0.524c-0.262-0.357-0.664-0.873-1.136-1.57
				c-0.965-1.379-2.298-3.424-3.739-6.072c-1.444-2.644-2.944-5.929-4.112-9.751c-0.564-1.915-1.051-3.959-1.389-6.109
				c-0.317-2.152-0.483-4.404-0.474-6.71c0.052-9.255,2.614-17.409,5.233-22.813c1.3-2.722,2.557-4.819,3.494-6.218
				c0.452-0.71,0.857-1.226,1.112-1.588c0.262-0.357,0.407-0.539,0.422-0.529c0.015,0.01-0.101,0.213-0.335,0.588
				c-0.227,0.38-0.603,0.913-1.027,1.638c-0.882,1.427-2.082,3.541-3.331,6.264c-2.517,5.409-4.995,13.498-5.046,22.661
				c-0.008,2.28,0.152,4.503,0.458,6.631c0.327,2.125,0.798,4.148,1.344,6.048c1.132,3.79,2.584,7.065,3.978,9.716
				c1.391,2.655,2.671,4.722,3.582,6.132c0.434,0.668,0.783,1.207,1.053,1.623C179.489,399.388,179.607,399.589,179.593,399.6z"/>
		</g>
		<g>
			<path style="fill:#263238;" d="M169.528,357.291c0.011,0.022-0.363,0.242-1.12,0.412c-0.752,0.175-1.901,0.218-3.254-0.077
				c-1.358-0.281-2.882-0.917-4.482-1.766c-1.6-0.855-3.261-1.987-4.824-3.383c-3.15-2.79-5.196-6.083-6.304-8.576
				c-0.547-1.257-0.897-2.309-1.098-3.046c-0.188-0.742-0.274-1.154-0.239-1.163c0.098-0.029,0.498,1.617,1.671,4.053
				c1.178,2.419,3.231,5.609,6.317,8.343c1.532,1.369,3.15,2.489,4.707,3.351c1.56,0.857,3.035,1.513,4.337,1.829
				C167.872,357.964,169.524,357.189,169.528,357.291z"/>
		</g>
		<g>
			<path style="fill:#263238;" d="M241.938,405.47c-0.019,0.031-0.344-0.138-0.918-0.472c-0.577-0.327-1.382-0.852-2.346-1.544
				c-1.926-1.383-4.437-3.543-6.738-6.359c-2.294-2.823-3.902-5.719-4.867-7.885c-0.483-1.084-0.835-1.978-1.038-2.61
				c-0.21-0.629-0.31-0.982-0.277-0.994c0.084-0.031,0.604,1.337,1.648,3.446c1.042,2.107,2.677,4.93,4.938,7.714
				c2.268,2.776,4.703,4.948,6.556,6.394C240.751,404.608,241.986,405.394,241.938,405.47z"/>
		</g>
		<g>
			<path style="fill:#263238;" d="M309.053,374.298c0.036,0,0.071,0.376,0.104,1.058c0.035,0.681,0.056,1.668,0.053,2.889
				c-0.019,2.435-0.134,5.836-0.966,9.497c-0.83,3.666-2.356,6.754-3.665,8.816c-0.67,1.026-1.239,1.836-1.679,2.36
				c-0.428,0.533-0.678,0.816-0.706,0.794c-0.078-0.058,0.84-1.258,2.071-3.345c1.215-2.09,2.656-5.138,3.473-8.742
				c0.819-3.599,0.993-6.964,1.106-9.389C308.94,375.806,308.974,374.298,309.053,374.298z"/>
		</g>
		<g>
			<path style="fill:#263238;" d="M351.378,322.596c0.009-0.016,0.17,0.061,0.47,0.222c0.297,0.166,0.747,0.395,1.295,0.74
				c1.085,0.703,2.628,1.799,4.25,3.47c1.617,1.666,3.296,3.911,4.676,6.661c0.69,1.374,1.299,2.871,1.848,4.449
				c0.523,1.587,0.974,3.258,1.343,4.989c1.428,6.953,1.356,13.403,1.224,18.007c-0.078,2.309-0.193,4.174-0.277,5.462
				c-0.044,0.594-0.081,1.084-0.111,1.482c-0.031,0.339-0.055,0.516-0.073,0.516c-0.018-0.001-0.028-0.18-0.032-0.52
				c0.003-0.399,0.008-0.891,0.013-1.487c0.028-1.367,0.066-3.215,0.111-5.462c0.038-4.597,0.048-11.013-1.366-17.892
				c-0.366-1.713-0.808-3.365-1.317-4.934c-0.536-1.559-1.126-3.038-1.794-4.397c-1.335-2.72-2.954-4.946-4.513-6.621
				c-1.563-1.678-3.053-2.805-4.095-3.554C351.962,323.014,351.357,322.633,351.378,322.596z"/>
		</g>
		<g>
			<path style="fill:#263238;" d="M339.689,333.683c-0.021-0.029,0.346-0.342,1.026-0.881c0.685-0.532,1.655-1.33,2.825-2.343
				c2.344-2.022,5.42-5.014,8.367-8.705c2.94-3.699,5.168-7.366,6.614-10.104c0.726-1.368,1.286-2.491,1.651-3.277
				c0.373-0.783,0.596-1.211,0.629-1.197c0.033,0.014-0.126,0.467-0.444,1.278c-0.31,0.814-0.821,1.967-1.509,3.364
				c-1.37,2.796-3.569,6.529-6.534,10.26c-2.973,3.723-6.118,6.701-8.537,8.662c-1.208,0.983-2.218,1.74-2.942,2.224
				C340.116,333.456,339.71,333.712,339.689,333.683z"/>
		</g>
		<g>
			<path style="fill:#263238;" d="M333.671,197.106c0.016-0.007,0.091,0.122,0.22,0.377c0.122,0.257,0.323,0.629,0.525,1.132
				c0.432,0.994,0.968,2.475,1.434,4.361c0.947,3.745,1.403,9.27-0.099,15.051c-1.503,5.783-4.592,10.386-7.242,13.197
				c-1.325,1.421-2.514,2.453-3.376,3.111c-0.421,0.341-0.777,0.568-1.009,0.733c-0.236,0.16-0.365,0.237-0.375,0.222
				c-0.025-0.034,0.441-0.409,1.256-1.112c0.816-0.701,1.957-1.766,3.231-3.201c2.551-2.842,5.535-7.398,7.011-13.081
				c1.476-5.68,1.089-11.112,0.245-14.837c-0.414-1.874-0.892-3.36-1.264-4.37C333.857,197.678,333.632,197.123,333.671,197.106z"/>
		</g>
		<g>
			<path style="fill:#263238;" d="M351.378,206.969c-0.002,0.091-0.996,0.072-2.564,0.302c-1.566,0.225-3.702,0.78-5.851,1.878
				c-2.145,1.107-3.841,2.52-4.936,3.661c-1.101,1.14-1.664,1.958-1.739,1.907c-0.045-0.027,0.412-0.925,1.468-2.156
				c1.048-1.23,2.76-2.736,4.97-3.876c2.213-1.131,4.434-1.645,6.044-1.78C350.385,206.764,351.383,206.916,351.378,206.969z"/>
		</g>
		<g>
			<path style="fill:#263238;" d="M383.645,315.796c-0.017-0.006,0.05-0.25,0.192-0.709c0.13-0.462,0.388-1.122,0.617-2.002
				c0.516-1.743,1.129-4.311,1.523-7.533c0.395-3.22,0.511-7.11-0.021-11.368c-0.506-4.253-1.692-8.872-3.754-13.367
				c-1.042-2.242-2.247-4.34-3.55-6.274c-1.328-1.918-2.757-3.66-4.209-5.236c-2.958-3.104-6.019-5.511-8.791-7.196
				c-2.768-1.694-5.171-2.793-6.872-3.429c-0.836-0.361-1.521-0.543-1.967-0.721c-0.451-0.163-0.686-0.257-0.681-0.274
				c0.005-0.017,0.25,0.043,0.712,0.174c0.457,0.146,1.155,0.298,2.006,0.631c1.732,0.581,4.176,1.636,6.993,3.305
				c2.822,1.659,5.939,4.061,8.949,7.181c1.478,1.585,2.931,3.341,4.28,5.277c1.325,1.952,2.548,4.075,3.602,6.345
				c2.088,4.55,3.273,9.228,3.758,13.528c0.511,4.305,0.355,8.232-0.09,11.471c-0.444,3.243-1.117,5.814-1.695,7.547
				c-0.261,0.876-0.55,1.527-0.712,1.979C383.762,315.571,383.662,315.803,383.645,315.796z"/>
		</g>
		<g>
			<path style="fill:#263238;" d="M383.584,251.784c0.057,0.013-0.094,0.984-0.611,2.483c-0.516,1.495-1.447,3.503-2.866,5.472
				c-1.42,1.969-3.034,3.488-4.302,4.435c-1.268,0.953-2.152,1.385-2.181,1.335c-0.112-0.137,3.296-2.172,6.061-6.075
				C382.498,255.574,383.417,251.719,383.584,251.784z"/>
		</g>
		<g>
			<path style="fill:#263238;" d="M278.506,169.857c0.034-0.011,0.176,0.358,0.403,1.039c0.119,0.339,0.251,0.758,0.364,1.255
				c0.118,0.496,0.278,1.056,0.372,1.692c0.247,1.262,0.406,2.789,0.451,4.49c0.017,1.701-0.097,3.575-0.423,5.514
				c-0.347,1.936-0.872,3.739-1.461,5.335c-0.617,1.586-1.282,2.971-1.94,4.075c-0.303,0.567-0.643,1.04-0.921,1.467
				c-0.274,0.43-0.539,0.78-0.766,1.059c-0.444,0.564-0.702,0.864-0.73,0.842c-0.081-0.06,0.892-1.312,2.095-3.547
				c0.609-1.113,1.229-2.493,1.811-4.063c0.555-1.58,1.057-3.355,1.398-5.258c0.32-1.906,0.447-3.746,0.457-5.42
				c-0.019-1.674-0.137-3.182-0.335-4.435C278.904,171.394,278.41,169.886,278.506,169.857z"/>
		</g>
		<g style="opacity:0.3;">
			<path d="M279.803,348.286c0.893-2.233,1.168-5.448-1.036-6.408c-1.507-0.656-3.201,0.26-4.573,1.167
				c-4.341,2.869-5.619,4.77-9.912,7.557c-3.06,1.986-7.586,4.147-10.905,2.631c-3.685-1.683-3.736-6.855-5.887-10.288
				c-0.665-1.062-1.738-2.05-2.988-1.962c-1.347,0.094-2.98,1.284-3.208,2.616c-0.227,1.331,0.172,2.989,0.225,4.338
				c0.164,4.19,0.168,6.374-0.204,9.637c-0.175,0.819-0.298,1.704-0.383,2.627c-3.576-0.248-7.236-0.295-10.458-0.49
				c-0.802-0.049-1.706-0.036-2.274,0.611c-0.423,0.482-0.548,1.197-0.64,1.87c-0.158,1.162-0.266,2.332-0.342,3.504
				c-16.682,0.086-32.431-0.858-47.178-8.958c-15.873-8.719-23.469-22.811-23.469-42.489c0,0,0.081-5.901-8.373-6.019
				c-9.331-0.13-9.188,10.238-9.188,10.238c-1.729,21.314,12.363,41.648,30.843,52.407c18.039,10.503,39.526,13.293,60.431,13.369
				c0.441,0.549,0.951,1.014,1.56,1.34c1.298,0.695,2.798,0.657,4.227,0.52c3.797-0.364,7.543-1.356,11.103-2.901
				c0.897,0.765,2.206,1.625,4.741,2.057c4.662,0.794,8.213,1.144,12.894,0.467c2.901-0.419,7.508-2.162,8.374-4.962
				c0.269-0.869,0.258-1.83,0.691-2.63c0.01-0.019,0.025-0.034,0.036-0.053c0.329-0.357,0.653-0.718,0.948-1.103
				c0.187-0.173,0.375-0.345,0.556-0.522c1.99-1.945,2.471-8.046,0.349-9.887c0.312-0.419,0.611-0.847,0.88-1.294l-0.659,0.685
				c2.375-3.566,2.002-6.677-1.169-9.798c0.04-0.064,0.088-0.122,0.127-0.186l-0.153,0.159c-0.003-0.003-0.005-0.006-0.008-0.009
				C277.237,352.616,278.285,352.081,279.803,348.286z"/>
		</g>
		<g>
			<path style="fill:#263238;" d="M156.572,309.378c0,19.678,7.595,33.77,23.469,42.489c15.873,8.719,32.906,9.147,51.015,8.924
				c0.253,6.195,0.507,12.39,0.76,18.585c-21.384,0.055-43.482-2.612-61.962-13.371c-18.48-10.759-32.572-31.094-30.843-52.407
				c0,0-0.144-10.368,9.188-10.238C156.654,303.476,156.572,309.378,156.572,309.378z"/>
			<g>
				<g>
					<path style="fill:#FFFFFF;" d="M278.767,337.004c-1.507-0.656-3.201,0.26-4.573,1.167c-4.341,2.869-5.619,4.77-9.912,7.557
						c-3.06,1.987-7.586,4.147-10.905,2.631c-3.685-1.683-3.736-6.855-5.887-10.288c-0.665-1.062-1.738-2.05-2.987-1.962
						c-1.347,0.094-2.98,1.284-3.208,2.616c-0.228,1.331,0.172,2.989,0.224,4.338c0.164,4.19,0.168,6.374-0.204,9.638
						c-0.372,3.264-1.074,9.279,0.768,11.999c0.926,4.468,2.053,7.461,4.017,11.579c0.525,1.101-1.122,0.253-0.143,0.981
						c1.054,0.785,2.059,2.464,5.959,3.128c4.662,0.794,8.213,1.144,12.894,0.467c2.901-0.419,7.508-2.162,8.374-4.962
						c0.269-0.869,0.258-1.83,0.691-2.63c0.363-0.671,0.995-1.145,1.54-1.678c2.028-1.982,2.495-8.294,0.23-10
						c2.761-3.79,2.489-7.053-0.864-10.331c2.457-3.513,3.505-4.047,5.023-7.843C280.696,341.18,280.972,337.964,278.767,337.004z"
						/>
					<path style="fill:#FFFFFF;" d="M250.116,358.149c-0.716,0.62-1.217-1.713-2.101-1.906c-5.419-1.183-12.105-1.076-17.542-1.405
						c-0.802-0.049-1.706-0.036-2.274,0.611c-0.423,0.482-0.548,1.197-0.64,1.871c-0.744,5.461-0.572,11.082,0.503,16.471
						c0.548,2.747,1.543,5.724,3.781,6.923c1.298,0.695,2.798,0.657,4.227,0.52c7.983-0.766,15.747-4.277,22.017-9.956
						L250.116,358.149z"/>
				</g>
				<g>
					<path style="fill:#263238;" d="M245.983,377.728c-0.029,0.021-0.254-0.267-0.637-0.808c-0.202-0.265-0.401-0.617-0.637-1.024
						c-0.246-0.402-0.492-0.878-0.743-1.415c-1.046-2.127-2.086-5.255-2.735-8.808c-0.63-3.558-0.754-6.847-0.562-9.207
						c0.037-0.591,0.09-1.123,0.166-1.588c0.065-0.466,0.12-0.866,0.202-1.188c0.145-0.646,0.242-0.997,0.277-0.99
						c0.091,0.018-0.204,1.446-0.278,3.785c-0.095,2.336,0.085,5.578,0.707,9.095c0.642,3.512,1.611,6.611,2.558,8.747
						C245.227,376.477,246.063,377.674,245.983,377.728z"/>
				</g>
				<g>
					<path style="fill:#263238;" d="M271.746,365.496c-0.083-0.129,1.212-1.049,2.549-2.449c1.348-1.391,2.217-2.72,2.349-2.642
						c0.12,0.06-0.574,1.557-1.973,3.003C273.279,364.862,271.81,365.614,271.746,365.496z"/>
				</g>
				<g>
					<path style="fill:#263238;" d="M270.966,375.722c-0.083-0.129,1.212-1.049,2.549-2.449c1.348-1.391,2.216-2.72,2.349-2.642
						c0.12,0.06-0.574,1.557-1.973,3.003C272.499,375.088,271.03,375.84,270.966,375.722z"/>
				</g>
				<g>
					<path style="fill:#263238;" d="M270.045,356.197c-0.083-0.129,1.212-1.049,2.549-2.449c1.348-1.391,2.216-2.72,2.349-2.642
						c0.12,0.06-0.573,1.557-1.973,3.003C271.578,355.563,270.109,356.315,270.045,356.197z"/>
				</g>
			</g>
		</g>
		<g>
			<g>
				<g>
					<g>
						<g>
							<g>
								<g>
									<g>
										<g>
											<g>
												<g>
													<g>
														<g>
															<g>
																<g>
																	<g>
																		<path style="fill:#263238;" d="M228.275,257.834c-0.307,2.31-8.391,3.016-17.382,6.152
																			c-9.057,2.955-15.914,7.29-17.558,5.639c-0.748-0.8,0.11-3.098,2.668-5.829c2.53-2.722,6.863-5.732,12.274-7.564
																			c5.411-1.819,10.681-2.051,14.346-1.419C226.312,255.436,228.387,256.745,228.275,257.834z"/>
																	</g>
																</g>
															</g>
														</g>
													</g>
												</g>
											</g>
										</g>
									</g>
								</g>
							</g>
						</g>
					</g>
				</g>
			</g>
			<g>
				<g>
					<g>
						<g>
							<g>
								<g>
									<g>
										<g>
											<g>
												<g>
													<g>
														<g>
															<g>
																<g>
																	<g>
																		<path style="fill:#263238;" d="M314.713,220.57c-1.749,1.794-8.409-0.247-16.464-0.506
																			c-8.044-0.491-14.903,0.917-16.434-1.032c-0.668-0.942,0.444-2.753,3.461-4.423
																			c2.973-1.664,7.917-2.972,13.45-2.716c5.533,0.262,10.294,2.021,13.058,3.954
																			C314.591,217.788,315.487,219.694,314.713,220.57z"/>
																	</g>
																</g>
															</g>
														</g>
													</g>
												</g>
											</g>
										</g>
									</g>
								</g>
							</g>
						</g>
					</g>
				</g>
			</g>
		</g>
		<g>
			<g>
				<g>
					<g>
						<g>
							<g>
								<g>
									<g>
										<path style="fill:#FFFFFF;" d="M316.598,255.38c13.124,5.128,19.364,20.548,13.936,34.441
											c-5.428,13.892-20.468,20.997-33.593,15.87c-13.125-5.128-19.364-20.548-13.936-34.44
											C288.433,257.358,303.473,250.252,316.598,255.38z"/>
									</g>
								</g>
							</g>
						</g>
					</g>
				</g>
			</g>
			<g>
				<g>
					<g>
						<g>
							<g>
								<g>
									<g>
										<path style="fill:#263238;" d="M317.07,254.174c13.124,5.128,19.969,18.999,15.288,30.981
											c-4.681,11.981-19.116,17.537-32.241,12.409c-13.125-5.128-19.969-18.999-15.288-30.979
											C289.51,254.602,303.945,249.046,317.07,254.174z"/>
									</g>
								</g>
							</g>
						</g>
					</g>
				</g>
			</g>
		</g>
		<g>
			<g>
				<g>
					<g>
						<g>
							<g>
								<g>
									<g>
										<path style="fill:#FFFFFF;" d="M237.39,273.16c10.671,9.201,11.427,25.819,1.687,37.116
											c-9.739,11.296-26.287,12.994-36.958,3.793c-10.672-9.202-11.427-25.819-1.688-37.114
											C210.17,265.658,226.717,263.959,237.39,273.16z"/>
									</g>
								</g>
							</g>
						</g>
					</g>
				</g>
			</g>
			<g>
				<g>
					<g>
						<g>
							<g>
								<g>
									<g>
										<path style="fill:#263238;" d="M238.235,272.18c10.671,9.201,12.513,24.559,4.113,34.302
											c-8.399,9.742-23.861,10.18-34.533,0.979c-10.672-9.202-12.513-24.559-4.114-34.301
											C212.102,263.417,227.563,262.978,238.235,272.18z"/>
									</g>
								</g>
							</g>
						</g>
					</g>
				</g>
			</g>
		</g>
		<g>
			<g style="opacity:0.3;">
				<path d="M264.2,312.786c-2.87,2.001-2.623,4.792-2.575,8.29c0.022,1.644,0.507,2.872,1.491,4.189
					c0.984,1.317,2.575,2.228,4.218,2.165c2.75-0.105,5.236-2.529,6.437-5.005c1.799-3.707,2.257-7.874,2.53-11.986
					C272.82,310.014,267.069,310.785,264.2,312.786z"/>
			</g>
			<g>
				<path style="fill:#263238;" d="M273.771,322.426c0.014,0.009-0.04,0.138-0.17,0.37c-0.129,0.233-0.339,0.565-0.643,0.969
					c-0.621,0.803-1.595,1.892-3.079,2.975c-0.766,0.502-1.719,0.928-2.819,1.028c-1.091,0.121-2.335-0.198-3.308-0.981
					c-0.98-0.766-1.705-1.929-2.035-3.222c-0.342-1.295-0.348-2.674-0.289-4.045c0.058-1.374,0.221-2.754,0.734-3.995
					c0.506-1.247,1.388-2.256,2.355-2.988c1.959-1.477,4.152-2.007,5.929-2.242c1.797-0.226,3.258-0.199,4.261-0.18
					c1.004,0.026,1.558,0.068,1.558,0.102c0,0.037-0.555,0.064-1.557,0.1c-1,0.043-2.452,0.074-4.21,0.342
					c-1.738,0.275-3.847,0.836-5.688,2.258c-0.909,0.706-1.713,1.645-2.176,2.801c-0.472,1.156-0.63,2.473-0.686,3.825
					c-0.06,1.355-0.052,2.682,0.262,3.893c0.302,1.208,0.958,2.266,1.841,2.975c0.877,0.717,1.969,1.016,2.974,0.926
					c1.01-0.072,1.918-0.45,2.655-0.908c1.441-0.994,2.473-2.052,3.12-2.793C273.446,322.88,273.733,322.402,273.771,322.426z"/>
			</g>
		</g>
		<path style="fill:#263238;" d="M229.327,463.537c-8.437-1.459-17.362-1.607-25.692,0.375c-4.33,1.03-8.702,2.368-12.255,5.048
			c-3.553,2.68-6.447,5.456-6.106,9.893l65.089,0.068C250.363,471.01,237.764,464.996,229.327,463.537z"/>
		<path style="fill:#263238;" d="M301.205,463.253c8.437-1.459,17.362-1.607,25.692,0.375c4.33,1.03,8.702,2.368,12.255,5.048
			c3.553,2.68,6.2,5.739,5.859,10.177l-64.841-0.216C280.169,470.727,292.768,464.712,301.205,463.253z"/>
		<g>
			<path style="fill:#263238;" d="M205.171,183.242c-0.022,0.045-0.775-0.319-2.174-0.869c-1.396-0.555-3.48-1.217-6.125-1.665
				c-2.641-0.455-5.863-0.607-9.375-0.131c-3.506,0.468-7.287,1.632-10.838,3.649c-3.527,2.062-6.431,4.749-8.594,7.548
				c-2.173,2.8-3.658,5.665-4.588,8.177c-0.938,2.513-1.411,4.648-1.63,6.134c-0.225,1.486-0.289,2.32-0.339,2.316
				c-0.018-0.001-0.017-0.21,0.001-0.607c0.032-0.396,0.023-0.988,0.136-1.737c0.16-1.505,0.581-3.673,1.486-6.234
				c0.897-2.559,2.368-5.483,4.554-8.343c2.175-2.858,5.12-5.606,8.714-7.706c3.618-2.055,7.471-3.225,11.034-3.674
				c3.57-0.457,6.837-0.263,9.501,0.244c2.669,0.501,4.756,1.224,6.138,1.841c0.705,0.277,1.213,0.582,1.571,0.753
				C204.998,183.122,205.179,183.226,205.171,183.242z"/>
		</g>
		<g style="opacity:0.3;">
			<path d="M267.07,214.717c0.996-7.183-1.538-14.772-6.649-19.916c-5.112-5.144-12.684-7.725-19.873-6.775
				c-0.015-7.033-0.03-14.067-0.045-21.1c0,0,5.421,1.089,5.516,16.316c0,0,12.801-1.229,19.892,10.988
				C273.002,206.446,267.07,214.717,267.07,214.717z"/>
		</g>
		<g>
			<path style="fill:#263238;" d="M248.869,245.109c-0.018-0.003-0.001-0.3,0.046-0.861c0.027-0.295,0.058-0.639,0.094-1.035
				c0.047-0.408,0.09-0.88,0.071-1.414c0.092-2.126-0.143-5.241-1.198-8.896c-0.214-0.929-0.635-1.839-0.976-2.818
				c-0.377-0.965-0.873-1.928-1.356-2.934c-0.582-0.954-1.082-2.002-1.801-2.955c-0.344-0.485-0.673-0.992-1.042-1.479
				c-0.389-0.472-0.784-0.95-1.183-1.434c-1.669-1.864-3.557-3.739-5.851-5.228c-2.266-1.515-4.818-2.779-7.589-3.613
				c-2.79-0.774-5.623-1.067-8.349-0.995c-2.735,0.035-5.334,0.614-7.74,1.3c-0.596,0.196-1.185,0.39-1.766,0.581
				c-0.572,0.215-1.121,0.468-1.671,0.695c-1.116,0.422-2.099,1.042-3.1,1.538c-0.945,0.593-1.878,1.143-2.712,1.758
				c-0.811,0.646-1.652,1.192-2.329,1.863c-2.842,2.529-4.703,5.038-5.759,6.884c-0.301,0.442-0.516,0.863-0.694,1.234
				c-0.181,0.355-0.338,0.663-0.473,0.926c-0.259,0.5-0.403,0.759-0.42,0.753c-0.016-0.007,0.095-0.28,0.325-0.796
				c0.122-0.271,0.265-0.587,0.43-0.952c0.165-0.38,0.367-0.811,0.657-1.265c1.01-1.892,2.844-4.463,5.69-7.058
				c0.678-0.688,1.521-1.25,2.337-1.913c0.839-0.632,1.779-1.198,2.732-1.807c1.009-0.512,2.003-1.147,3.131-1.583
				c0.556-0.234,1.112-0.495,1.691-0.716c0.589-0.198,1.186-0.398,1.789-0.6c2.439-0.71,5.079-1.307,7.864-1.351
				c2.774-0.081,5.664,0.214,8.511,1.004c2.828,0.85,5.429,2.143,7.731,3.692c2.331,1.523,4.244,3.436,5.928,5.338
				c0.403,0.494,0.801,0.981,1.193,1.462c0.372,0.496,0.703,1.013,1.048,1.508c0.721,0.971,1.223,2.038,1.803,3.01
				c0.482,1.024,0.974,2.004,1.347,2.986c0.336,0.995,0.75,1.921,0.956,2.865c1.022,3.714,1.201,6.867,1.046,9.006
				c0.003,0.538-0.056,1.011-0.12,1.42c-0.055,0.397-0.103,0.741-0.145,1.035C248.938,244.821,248.887,245.112,248.869,245.109z"/>
		</g>
		<g>
			<path style="fill:#263238;" d="M155.311,275.758c-0.004,0.017-0.189-0.016-0.537-0.097c-0.344-0.093-0.871-0.179-1.512-0.406
				c-1.303-0.391-3.145-1.138-5.235-2.401c-2.091-1.256-4.385-3.106-6.455-5.595c-2.07-2.479-3.861-5.639-4.881-9.243
				c-0.973-3.618-1.057-7.25-0.551-10.44c0.5-3.199,1.521-5.965,2.672-8.115c1.146-2.156,2.345-3.742,3.262-4.746
				c0.434-0.524,0.842-0.867,1.09-1.124c0.258-0.248,0.399-0.371,0.412-0.358c0.035,0.035-0.488,0.574-1.347,1.614
				c-0.863,1.035-2.001,2.636-3.089,4.783c-1.093,2.141-2.06,4.873-2.525,8.018c-0.471,3.137-0.372,6.693,0.579,10.23
				c0.998,3.523,2.737,6.626,4.75,9.076c2.012,2.461,4.243,4.31,6.28,5.588c2.035,1.284,3.833,2.075,5.105,2.521
				C154.597,275.515,155.324,275.71,155.311,275.758z"/>
		</g>
		<g>
			<path style="fill:#263238;" d="M118.599,238.977c0.006-0.058,1.109-0.017,2.854,0.331c1.743,0.345,4.12,1.054,6.566,2.251
				c2.444,1.204,4.458,2.651,5.797,3.819c1.343,1.169,2.05,2.015,2.008,2.056c-0.06,0.061-0.856-0.69-2.241-1.771
				c-1.382-1.082-3.392-2.454-5.793-3.637c-2.403-1.176-4.717-1.927-6.419-2.359C119.669,239.232,118.588,239.061,118.599,238.977z"
				/>
		</g>
		<g>
			<path style="fill:#263238;" d="M264.553,223.932c-0.028,0.086-1.106-0.257-2.889-0.57c-1.78-0.313-4.289-0.525-7.025-0.192
				c-2.736,0.342-5.115,1.167-6.752,1.93c-1.641,0.761-2.586,1.385-2.636,1.309c-0.02-0.03,0.199-0.209,0.615-0.511
				c0.411-0.309,1.046-0.699,1.859-1.129c1.623-0.862,4.047-1.767,6.85-2.117c2.803-0.341,5.371-0.064,7.16,0.348
				c0.896,0.206,1.611,0.416,2.089,0.603C264.306,223.783,264.565,223.898,264.553,223.932z"/>
		</g>
		<g style="opacity:0.3;">
			<path d="M256.609,218.678c-3.821-0.682-7.871,0-11.259,1.896c-5.591-9.573-17.068-15.356-28.089-14.154
				c-11.021,1.202-19.679,9.686-23.075,20.239c5.641-10.523,15.399-14.683,25.692-14.976c10.294-0.292,20.776,5.372,25.338,14.604
				c6.388-3.637,14.361-4.363,21.3-1.937C263.994,221.401,260.43,219.36,256.609,218.678z"/>
		</g>
		<g style="opacity:0.3;">
			<path d="M146.564,230.957c-5.981,0.377-11.686,3.823-14.803,8.941c-4.028-1.922-8.702-2.1-13.007-0.921
				c6.665,0.605,13.25,4.026,17.634,9.137C136.027,241.077,140.215,234.015,146.564,230.957z"/>
		</g>
		<g style="opacity:0.3;">
			<path d="M387.147,274.68c-5.781-9.745-18.356-17.047-29.68-16.654l-0.277-0.015c8.983,3.403,19.132,10.512,24.496,21.5
				c4.214,8.633,5.972,19.707,4.239,29.156C391.699,298.916,392.929,284.425,387.147,274.68z"/>
		</g>
		<g>
			<g>
				<path style="fill:#FFFFFF;" d="M390.392,420.221c0.109-0.814,0.199-1.631,0.217-2.452c0.051-2.435,0.256-4.472-0.39-7.16
					c-0.451-1.88-1.365-3.779-2.041-4.594c1.428-3.178,2.363-6.528,2.735-9.932c0.14-1.281,0.191-2.627-0.417-3.8
					c-1.049-2.024-3.71-2.951-6.169-3.476c-4.824-1.029-9.867-1.249-14.778-0.646c-0.605,0.074-1.249,0.178-1.686,0.552
					c-0.587,0.502-0.609,1.313-0.575,2.034c0.118,2.496,0.481,6.677,0.19,10.775c-2.495,0.921-4.8,2.394-6.727,4.339
					c-0.022,0.022-0.044,0.045-0.067,0.067c-2.221,2.224-7.399,5.749-7.399,5.749c-1.471,0.993-2.392,2.023-2.493,3.232
					c-0.093,1.121,0.463,2.113,1.408,2.723c3.055,1.971,9.901-2.994,9.901-2.994s-1.188,3.732-3.007,6.455
					c-3.071,4.597-0.662,0.75-5.351,7.751c-0.484,0.724-1.994,2.582-1.389,4.531c0.634,2.04,2.09,2.287,4.097,1.515
					c3.396-1.306,7.845-6.029,10.796-8.418c-0.814,1.001-4.796,6.741-5.457,7.791c-0.926,1.468-1.861,2.679-1.426,3.909
					c0.435,1.231,2.197,1.654,3.499,1.556c1.057-0.08,1.94-0.807,2.725-1.519c2.228-2.02,5.163-5.599,7.087-7.91
					c-0.901,2.054-3.045,6.065-3.63,8.23c-0.215,0.798-0.806,2.534-0.441,3.275c0.62,1.257,2.426,1.343,3.728,0.823
					c1.685-0.673,3.989-3.354,4.981-4.874c0.992-1.52,1.661-3.223,2.324-4.912c0,0-0.255,1.228-0.576,1.938
					c-0.321,0.709-1.157,2.784-1.169,3.562c-0.012,0.778-0.892,3.693,0.348,4.487c1.666,1.067,3.085-0.697,3.52-1.243
					c2.898-3.639,4.569-8.614,5.741-12.037C389.537,426.517,389.968,423.389,390.392,420.221z"/>
				<g>
					<path style="fill:#263238;" d="M390.392,420.221c0,0-0.012,0.225-0.061,0.66c-0.058,0.453-0.14,1.094-0.246,1.929
						c-0.254,1.684-0.588,4.21-1.664,7.289c-0.521,1.537-1.104,3.249-1.874,5.075c-0.772,1.821-1.709,3.777-3.051,5.677
						c-0.679,0.9-1.378,2.03-2.69,2.411c-0.657,0.169-1.37-0.012-1.9-0.496c-0.484-0.566-0.508-1.299-0.493-1.953
						c0.024-0.669,0.142-1.334,0.246-1.993c0.026-0.165,0.047-0.328,0.055-0.479c0.008-0.191,0.038-0.367,0.076-0.539
						c0.076-0.344,0.179-0.676,0.289-1.007c0.223-0.661,0.476-1.316,0.76-1.973c0.285-0.626,0.456-1.32,0.612-2.018l0.361,0.107
						c-0.768,1.965-1.58,4.078-3.014,5.91c-0.702,0.912-1.477,1.791-2.357,2.599c-0.442,0.401-0.911,0.787-1.445,1.105
						c-0.535,0.326-1.155,0.529-1.787,0.591c-0.63,0.066-1.303,0.002-1.906-0.311c-0.298-0.158-0.569-0.39-0.763-0.68
						c-0.211-0.271-0.283-0.695-0.27-1.009c0.018-0.668,0.185-1.287,0.351-1.903c0.173-0.605,0.337-1.232,0.572-1.84
						c0.921-2.416,2.175-4.736,3.269-7.168l0.392,0.243c-1.552,1.869-3.139,3.797-4.867,5.682c-0.869,0.939-1.765,1.874-2.776,2.73
						c-0.511,0.421-1.088,0.824-1.78,1.015c-0.711,0.181-1.393,0.123-2.079-0.009c-0.672-0.15-1.372-0.422-1.87-1.005
						c-0.509-0.587-0.58-1.453-0.346-2.137c0.223-0.694,0.605-1.278,0.967-1.856c0.359-0.579,0.745-1.138,1.145-1.701
						c1.577-2.254,3.178-4.542,4.8-6.858l0.36,0.361c-2.693,2.223-5.194,4.839-8.204,6.968c-0.754,0.529-1.551,1.016-2.423,1.389
						c-0.857,0.356-1.822,0.677-2.847,0.437c-0.508-0.117-0.964-0.451-1.264-0.863c-0.306-0.415-0.491-0.871-0.615-1.354
						c-0.249-0.991,0.006-2.022,0.432-2.882c3.213-5.484,7.722-9.964,9.368-15.808l0.396,0.286c-1.329,0.922-2.7,1.738-4.153,2.396
						c-1.443,0.645-2.989,1.201-4.641,1.075c-0.822-0.101-1.629-0.508-2.161-1.137c-0.55-0.623-0.834-1.482-0.754-2.306
						c0.073-0.844,0.531-1.578,1.07-2.141c0.538-0.572,1.177-1.026,1.793-1.441c2.436-1.711,4.84-3.42,6.919-5.355
						c2.012-2.076,4.463-3.683,7.072-4.634l-0.151,0.201c0.19-2.723,0.111-5.4-0.027-8.004c-0.036-0.652-0.072-1.3-0.108-1.943
						c-0.021-0.64-0.116-1.286,0.024-1.973c0.071-0.337,0.229-0.68,0.486-0.939c0.257-0.262,0.588-0.414,0.906-0.509
						c0.649-0.185,1.267-0.205,1.884-0.284c4.944-0.497,9.655-0.142,13.891,0.76c2.093,0.466,4.217,1.102,5.655,2.619
						c0.718,0.747,1.098,1.755,1.177,2.721c0.09,0.973-0.03,1.909-0.143,2.805c-0.483,3.603-1.529,6.724-2.699,9.307l-0.018-0.129
						c0.746,0.979,1.184,2.034,1.558,3.028c0.364,1,0.592,1.972,0.729,2.88c0.279,1.822,0.194,3.378,0.151,4.616
						c-0.025,1.241-0.133,2.182-0.202,2.812C390.442,419.903,390.392,420.221,390.392,420.221s0.006-0.324,0.051-0.954
						c0.047-0.63,0.134-1.566,0.138-2.81c0.023-1.239,0.086-2.786-0.209-4.582c-0.146-0.897-0.38-1.852-0.747-2.834
						c-0.374-0.973-0.828-2.025-1.542-2.946c-0.03-0.036-0.034-0.088-0.018-0.129c1.141-2.575,2.156-5.677,2.613-9.247
						c0.109-0.891,0.218-1.811,0.127-2.732c-0.083-0.918-0.432-1.828-1.103-2.521c-1.342-1.41-3.411-2.042-5.48-2.488
						c-4.204-0.876-8.875-1.211-13.771-0.703c-0.607,0.078-1.243,0.11-1.803,0.274c-0.573,0.151-0.986,0.551-1.092,1.131
						c-0.119,0.567-0.035,1.214-0.009,1.856c0.038,0.643,0.075,1.291,0.113,1.943c0.146,2.611,0.233,5.305,0.046,8.061
						c-0.006,0.094-0.069,0.171-0.151,0.202c-2.547,0.939-4.913,2.491-6.898,4.544c-2.127,1.985-4.523,3.69-6.972,5.416
						c-0.621,0.42-1.214,0.845-1.712,1.374c-0.496,0.52-0.875,1.152-0.933,1.843c-0.065,0.695,0.169,1.402,0.635,1.932
						c0.468,0.542,1.124,0.871,1.837,0.963c1.464,0.115,2.97-0.402,4.372-1.037c1.411-0.639,2.774-1.452,4.062-2.348l0.007-0.005
						c0.116-0.081,0.276-0.052,0.356,0.064c0.048,0.069,0.057,0.154,0.033,0.227c-0.482,1.444-1.053,2.853-1.735,4.234
						c-0.665,1.394-1.555,2.679-2.423,3.946c-0.427,0.645-0.92,1.265-1.363,1.883c-0.439,0.636-0.88,1.275-1.321,1.914l-1.309,1.943
						c-0.437,0.665-0.914,1.274-1.24,1.958c-0.396,0.8-0.605,1.698-0.395,2.53c0.208,0.836,0.695,1.658,1.504,1.837
						c0.799,0.197,1.707-0.068,2.515-0.413c0.817-0.349,1.591-0.819,2.327-1.336c2.954-2.086,5.447-4.687,8.179-6.941
						c0.109-0.09,0.27-0.074,0.36,0.035c0.075,0.09,0.076,0.217,0.012,0.309l-0.012,0.017c-1.613,2.3-3.206,4.572-4.775,6.81
						c-0.396,0.555-0.785,1.119-1.145,1.696c-0.36,0.569-0.723,1.137-0.913,1.734c-0.196,0.587-0.128,1.227,0.251,1.671
						c0.377,0.45,0.984,0.707,1.592,0.84c0.606,0.123,1.281,0.168,1.846,0.018c0.583-0.158,1.111-0.516,1.599-0.917
						c0.977-0.824,1.87-1.751,2.733-2.68c1.719-1.869,3.306-3.788,4.863-5.654c0.081-0.1,0.228-0.115,0.327-0.034
						c0.083,0.067,0.106,0.183,0.065,0.276c-1.112,2.457-2.366,4.765-3.276,7.137c-0.229,0.586-0.389,1.192-0.565,1.802
						c-0.165,0.6-0.324,1.208-0.34,1.791c-0.051,0.575,0.31,1.031,0.8,1.301c0.492,0.259,1.089,0.328,1.659,0.268
						c1.174-0.082,2.137-0.805,2.996-1.579c0.857-0.782,1.625-1.646,2.316-2.537c1.4-1.773,2.205-3.837,2.982-5.802
						c0.036-0.098,0.145-0.147,0.242-0.111c0.089,0.033,0.137,0.129,0.118,0.219c-0.163,0.716-0.339,1.424-0.644,2.089
						c-0.281,0.642-0.536,1.293-0.757,1.939c-0.109,0.323-0.211,0.648-0.283,0.969c-0.037,0.16-0.063,0.32-0.07,0.468
						c-0.01,0.188-0.034,0.359-0.061,0.526c-0.109,0.668-0.226,1.313-0.252,1.952c-0.026,0.625,0.029,1.293,0.394,1.714
						c0.408,0.374,1.04,0.561,1.583,0.411c1.136-0.31,1.851-1.378,2.523-2.274c1.334-1.864,2.279-3.798,3.06-5.603
						c0.779-1.81,1.376-3.512,1.911-5.043c1.1-3.05,1.466-5.559,1.754-7.238c0.129-0.831,0.229-1.469,0.299-1.92
						C390.344,420.441,390.392,420.221,390.392,420.221z"/>
				</g>
			</g>
			<g>
				<path style="fill:#263238;" d="M388.29,406.1c-0.063,0.072-1.016-0.783-2.72-1.916c-1.702-1.121-4.242-2.447-7.3-3.037
					c-3.06-0.58-5.913-0.338-7.931-0.032c-2.024,0.323-3.258,0.657-3.281,0.569c-0.01-0.034,0.289-0.148,0.841-0.325
					c0.549-0.186,1.362-0.393,2.377-0.607c2.025-0.403,4.943-0.714,8.093-0.117c3.148,0.608,5.737,2.029,7.41,3.245
					c0.835,0.618,1.484,1.152,1.896,1.561C388.094,405.841,388.314,406.074,388.29,406.1z"/>
			</g>
		</g>
	</g>
</g>
</svg>
